<?xml version="1.0" encoding="UTF-8"?>
<svg xmlns="http://www.w3.org/2000/svg" xmlns:xlink="http://www.w3.org/1999/xlink">
<defs>

<!-- Social media icons -->
<symbol id="twitter1" viewBox="0 0 16 16">
<path fill="currentColor" d="M16 3.039a6.8 6.8 0 0 1-1.89.518 3.26 3.26 0 0 0 1.443-1.813 6.6 6.6 0 0 1-2.08.794 3.28 3.28 0 0 0-5.674 2.243c0 .26.022.51.076.748a9.28 9.28 0 0 1-6.761-3.431 3.285 3.285 0 0 0 1.008 4.384A3.24 3.24 0 0 1 .64 6.078v.036a3.295 3.295 0 0 0 2.628 3.223 3.3 3.3 0 0 1-.86.108 3 3 0 0 1-.621-.056 3.31 3.31 0 0 0 3.065 2.285 6.6 6.6 0 0 1-4.067 1.399c-.269 0-.527-.012-.785-.045A9.23 9.23 0 0 0 5.032 14.5c6.036 0 9.336-5 9.336-9.334q0-.216-.012-.424A6.5 6.5 0 0 0 16 3.039"/>
</symbol>

<symbol id="linkedin1" viewBox="0 0 16 16">
<path fill="currentColor" d="M15.996 16H16V10.13c0-2.87-.618-5.082-3.974-5.082-1.613 0-2.696.886-3.138 1.725h-.047V5.317H5.66V16h3.314V10.71c0-1.393.264-2.74 1.988-2.74 1.7 0 1.725 1.59 1.725 2.83V16zM.264 5.318h3.317V16H.264zM1.921 0C.861 0 0 .86 0 1.921s.86 1.94 1.921 1.94 1.922-.879 1.922-1.94C3.842.861 2.98 0 1.92 0"/>
</symbol>

<symbol id="instagram2" viewBox="0 0 16 16">
<path fill="currentColor" d="M15.984 4.704c-.037-.85-.175-1.435-.372-1.941a3.9 3.9 0 0 0-.925-1.419 3.9 3.9 0 0 0-1.416-.922c-.51-.197-1.09-.335-1.94-.372C10.473.01 10.2 0 8.03 0 5.857 0 5.585.01 4.732.047c-.85.037-1.435.175-1.94.372a3.9 3.9 0 0 0-1.42.925A3.9 3.9 0 0 0 .45 2.76C.253 3.27.116 3.85.078 4.7c-.04.857-.05 1.13-.05 3.302s.01 2.444.047 3.297c.037.85.175 1.435.372 1.941.203.538.519 1.019.925 1.42.4.405.885.721 1.416.921.51.197 1.09.335 1.941.372.853.038 1.125.047 3.298.047s2.444-.01 3.297-.047c.85-.037 1.435-.175 1.941-.372a4.1 4.1 0 0 0 2.341-2.34c.197-.51.335-1.092.372-1.942.038-.853.047-1.125.047-3.297s-.003-2.445-.04-3.298m-1.44 6.533c-.035.781-.166 1.203-.276 1.484a2.65 2.65 0 0 1-1.519 1.52c-.281.109-.706.24-1.484.274-.844.038-1.097.047-3.232.047s-2.391-.01-3.232-.047c-.782-.034-1.204-.165-1.485-.275a2.5 2.5 0 0 1-.919-.597 2.5 2.5 0 0 1-.597-.919c-.11-.28-.24-.706-.275-1.484-.037-.844-.047-1.097-.047-3.232s.01-2.391.047-3.232c.035-.781.166-1.203.275-1.485.128-.347.332-.662.6-.919.26-.265.572-.469.92-.597.28-.109.706-.24 1.484-.275.844-.037 1.097-.047 3.232-.047 2.138 0 2.39.01 3.232.047.781.035 1.203.166 1.484.275.347.128.663.332.92.597.265.26.468.572.596.92.11.28.241.706.275 1.484.038.844.047 1.097.047 3.232s-.009 2.385-.046 3.229"/>
<path fill="currentColor" d="M8.03 3.891a4.111 4.111 0 0 0 0 8.22 4.111 4.111 0 0 0 0-8.22m0 6.777a2.667 2.667 0 1 1 0-5.333 2.667 2.667 0 0 1 0 5.333M13.262 3.729a.96.96 0 1 1-1.92 0 .96.96 0 0 1 1.92 0"/>
</symbol>

<symbol id="facebook1" viewBox="0 0 16 16">
<path fill="currentColor" d="M10.665 2.657h1.46V.113A19 19 0 0 0 9.997 0C7.891 0 6.45 1.325 6.45 3.76V6H4.125v2.844h2.324V16h2.849V8.845h2.23L11.882 6H9.297V4.04c.001-.822.222-1.384 1.368-1.384"/>
</symbol>

<!-- Features icons -->
<symbol id="diagram2" viewBox="0 0 64 64">
<path fill="#4D5AE5" d="M29.851 29.93h2.132v9.594h-2.132zM38.38 34.194h2.132v5.33H38.38zM21.322 37.392h2.132v2.132h-2.132zM14.926 36.326h2.132v3.198h-2.132z"/>
<path fill="#2E2F42" d="M3.198 56.582h51.174a3.2 3.2 0 0 0 3.198-3.198v-4.265a3.2 3.2 0 0 0-3.198-3.198h-1.067V19.334l6.056-5.736a3.216 3.216 0 1 0-1.493-1.526l-4.563 4.325v-2.46a3.2 3.2 0 0 0-3.198-3.198H7.463a3.2 3.2 0 0 0-3.199 3.199V45.92H3.198A3.2 3.2 0 0 0 0 49.119v4.265a3.2 3.2 0 0 0 3.198 3.198m57.57-46.909a1.066 1.066 0 1 1 0 2.133 1.066 1.066 0 0 1 0-2.133M6.397 13.938c0-.59.477-1.067 1.066-1.067h42.644c.589 0 1.066.478 1.066 1.067v4.477l-2.132 2.026V16.07c0-.589-.477-1.066-1.066-1.066H9.595c-.589 0-1.066.477-1.066 1.066v26.653c0 .588.477 1.066 1.066 1.066h38.38c.589 0 1.066-.478 1.066-1.067V23.374l2.132-2.02V45.92H6.397zm9.595 13.859a3.198 3.198 0 1 0 2.214 5.497l3.706 1.86c.43.215.953.114 1.273-.246l7.877-8.863 7.744 5.803c.416.311.996.278 1.372-.079l6.73-6.375v16.262H10.662v-24.52H46.91v5.32L39.366 29.6l-7.81-5.854a1.067 1.067 0 0 0-1.435.144l-7.986 8.985-2.986-1.493q.033-.192.041-.387a3.2 3.2 0 0 0-3.198-3.198m1.066 3.198a1.066 1.066 0 1 1-2.133 0 1.066 1.066 0 0 1 2.133 0m6.396 17.058h10.661v1.066c0 .589-.477 1.066-1.066 1.066H24.52a1.066 1.066 0 0 1-1.066-1.066zM2.132 49.12c0-.589.478-1.066 1.066-1.066h18.124v1.066a3.2 3.2 0 0 0 3.198 3.198h8.53a3.2 3.2 0 0 0 3.198-3.198v-1.066h18.124c.588 0 1.066.477 1.066 1.066v4.265c0 .588-.478 1.066-1.067 1.066H3.198a1.066 1.066 0 0 1-1.066-1.066z"/>
</symbol>

<symbol id="clock2" viewBox="0 0 64 64">
<path fill="#2E2F42" d="M62.593 30.603C62.59 13.697 48.883-.004 31.977 0 15.074.003 1.372 13.71 1.375 30.616a30.61 30.61 0 0 0 21.299 29.152q.182.058.373.057c.242 0 .478-.065.685-.187.27-.16.472-.414.567-.713l7.73-24.5a3.826 3.826 0 1 0-1.68-7.27L20.137 16.942a1.275 1.275 0 0 0-1.803 1.804l10.207 10.218a3.75 3.75 0 0 0 1.072 4.618l-7.365 23.346C7.692 51.566.239 35.42 5.601 20.864 10.963 6.31 27.11-1.144 41.665 4.217 56.22 9.58 63.673 25.726 58.312 40.281a28.09 28.09 0 0 1-14.925 15.947l-.796-3.749a1.275 1.275 0 0 0-2.096-.687l-7.674 6.851a1.275 1.275 0 0 0 .462 2.169l9.797 3.127a1.275 1.275 0 0 0 1.638-1.48l-.782-3.678a30.51 30.51 0 0 0 18.657-28.178m-30.609-1.276a1.276 1.276 0 1 1 0 2.552 1.276 1.276 0 0 1 0-2.552m4.201 29.728 4.368-3.896 1.206 5.68z"/>
<path fill="#4D5AE5" d="M30.709 6.37v2.55a1.275 1.275 0 1 0 2.55 0V6.37a1.276 1.276 0 0 0-2.55 0M7.752 29.327a1.275 1.275 0 0 0 0 2.55h2.55a1.275 1.275 0 1 0 0-2.55zM56.216 31.878a1.275 1.275 0 1 0 0-2.55h-2.55a1.276 1.276 0 0 0 0 2.55z"/>
</symbol>

<symbol id="astronaut2" viewBox="0 0 64 64">
<path fill="#4D5AE5" d="M63.948 9.048a1.07 1.07 0 0 0-.86-.725l-3.822-.556-1.71-3.462c-.358-.73-1.553-.73-1.912 0l-1.71 3.462-3.82.556a1.066 1.066 0 0 0-.592 1.819l2.765 2.695-.653 3.806c-.068.4.096.804.424 1.043.332.241.765.271 1.124.081L56.6 15.97l3.418 1.797a1.068 1.068 0 0 0 1.547-1.124l-.652-3.806 2.766-2.696a1.07 1.07 0 0 0 .27-1.093m-4.926 2.654c-.25.244-.366.598-.306.944l.382 2.228-2.001-1.051a1.06 1.06 0 0 0-.994 0l-2.001 1.051.382-2.228a1.07 1.07 0 0 0-.307-.944l-1.62-1.579 2.238-.325c.348-.05.648-.269.803-.583l1-2.027L57.6 9.214c.156.315.456.534.804.584l2.237.325zM52.267 41.044h-2.134v2.134h2.134zM52.267 45.311h-2.134v2.134h2.134zM54.4 43.178h-2.133v2.133H54.4zM50.134 43.178H48v2.133h2.134zM44.8 52.778h-2.133v2.133H44.8zM44.8 57.045h-2.133v2.133H44.8zM46.934 54.911H44.8v2.134h2.134zM42.667 54.911h-2.134v2.134h2.134zM32 48.511h-2.133v2.134H32zM32 52.778h-2.133v2.133H32zM34.133 50.645H32v2.133h2.133zM29.867 50.645h-2.134v2.133h2.134zM11.733 12.244H9.6v2.133h2.133zM11.733 16.51H9.6v2.134h2.133zM13.866 14.377h-2.133v2.134h2.133zM9.6 14.377H7.466v2.134H9.6z"/>
<path fill="#2E2F42" d="M49.43 28.319a3.55 3.55 0 0 0-2.377-1.41 3.55 3.55 0 0 0-2.68.705l-2.503 1.919h-.001l-3.796 2.835-2.715-1.082c4.842-2.172 8.227-7.016 8.227-12.64C43.585 11 37.34 4.78 29.663 4.78S15.74 11 15.74 18.646c0 2.771.83 5.349 2.24 7.517l-5.527-.048h-.01c-.017 0-.03.009-.047.01a1 1 0 0 0-.31.062c-.026.01-.052.015-.077.026-.012.006-.025.007-.038.013l-6.466 3.193h-.002l-3.787 1.822a1 1 0 0 0-.126.07A3.56 3.56 0 0 0 .393 35.9a3.55 3.55 0 0 0 2.112 1.779 3.558 3.558 0 0 0 2.757-.257l2.776-1.476 4.528-2.339 2.714-.015-10.884 10.83q0 .002-.003.003l-2.677 2.666a3.3 3.3 0 0 0-.98 2.356c0 .89.347 1.727.98 2.357.65.647 1.504.97 2.358.97.856 0 1.709-.323 2.36-.97l2.629-2.618 3.482-2.599 1.801 1.794-3.523 3.508-.003.003-2.678 2.666a3.3 3.3 0 0 0-.98 2.355c0 .89.348 1.727.98 2.358.65.646 1.505.97 2.36.97s1.71-.324 2.36-.97l2.679-2.667 4.285-4.266q0-.003.002-.004l2.019-2-.007-.007c.012-.013.03-.017.043-.031L32.215 38.98l6.942.988q.075.011.15.01c.13 0 .254-.03.375-.076q.05-.02.1-.047c.038-.019.078-.03.114-.054l6.427-4.267c.024-.016.036-.042.059-.059.025-.02.057-.028.08-.05l2.544-2.383a3.56 3.56 0 0 0 .424-4.723M4.26 35.54c-.346.186-.74.223-1.116.104a1.43 1.43 0 0 1-.425-2.52l2.628-1.264.632 1.849.266.776zm6.995-3.655-3.097 1.6-.51-1.494-.367-1.073 4.053-2zm30.199-13.241c0 1.837-.439 3.57-1.198 5.119l-8.363-3.798a3.72 3.72 0 0 0-1.576-2.776l2.928-9.72C38 8.98 41.454 13.416 41.454 18.643m-23.578 0c0-6.47 5.289-11.733 11.789-11.733.506 0 1 .042 1.49.104l-2.864 9.507c-.038 0-.075-.011-.114-.011a3.743 3.743 0 0 0-3.745 3.733 3.743 3.743 0 0 0 3.745 3.733c1.389 0 2.589-.766 3.236-1.889l7.725 3.51c-2.15 2.893-5.59 4.78-9.473 4.78-6.5 0-11.789-5.265-11.789-11.734m11.913 1.6c0 .882-.724 1.6-1.612 1.6a1.61 1.61 0 0 1-1.612-1.6c0-.882.723-1.6 1.612-1.6s1.612.718 1.612 1.6M4.929 50.292a1.217 1.217 0 0 1-1.708.002 1.19 1.19 0 0 1 0-1.689l1.924-1.917 1.703 1.695zm6.428 7.467a1.216 1.216 0 0 1-1.71.001 1.19 1.19 0 0 1 0-1.688l1.926-1.918.805.801.899.894zm6.964-6.937-.004.002-3.53 3.52-.805-.801-.898-.894 3.527-3.51v-.002q0 0 .003-.002c.08-.08.13-.176.18-.27.013-.028.04-.052.051-.08.034-.083.039-.171.052-.258.006-.049.028-.095.028-.145 0-.071-.026-.14-.041-.211-.013-.064-.013-.13-.037-.191-.04-.1-.11-.189-.183-.275-.02-.024-.028-.054-.05-.076h-.001l-.002-.004-3.214-3.2c-.034-.034-.078-.048-.116-.077a1 1 0 0 0-.174-.115 1 1 0 0 0-.187-.065 1 1 0 0 0-.206-.04 1 1 0 0 0-.19.01 1 1 0 0 0-.209.04 1 1 0 0 0-.188.09c-.04.022-.085.03-.122.057l-3.547 2.648-1.801-1.794 4.798-4.772 8.72 8.577zm13.637-14.034c-.03-.004-.06.008-.09.006a1 1 0 0 0-.23.014q-.09.013-.177.042a1 1 0 0 0-.193.094q-.089.053-.166.123c-.026.022-.057.033-.08.058l-9.397 10.292-8.656-8.514 5.666-5.636a1.068 1.068 0 0 0-.759-1.822l-4.437.026.055-3.215 6.208.053a13.9 13.9 0 0 0 9.963 4.202c.875 0 1.728-.09 2.559-.245.08.064.159.129.26.17l4.819 1.92.305 1.516.356 1.77zm8.083.357-.626-3.116 2.892-2.16.758 1.004 1.136 1.509zm7.507-5.662-1.676 1.57-1.862-2.473 1.663-1.274c.31-.24.701-.336 1.085-.286.387.054.728.256.96.568.434.584.36 1.398-.17 1.895"/>
<path fill="#2E2F42" d="m27.204 37.088-4.286-4.267a1.066 1.066 0 0 0-1.505 0l-4.285 4.267a1.07 1.07 0 0 0 0 1.513l4.285 4.266a1.066 1.066 0 0 0 1.505 0l4.286-4.266a1.067 1.067 0 0 0 0-1.513m-5.038 3.518-2.773-2.762 2.773-2.761 2.775 2.761zM34.329 10.142l-.516 2.071c.142.035 3.476.904 3.476 4.298h2.133c0-4.034-3.331-5.931-5.093-6.37M39.422 18.644h-2.133v2.134h2.133z"/>
</symbol>

<symbol id="antenna2" viewBox="0 0 64 64">
<path d="M61.5463 44.1952L44.6599 27.1851L46.534 17.9541C47.0176 18.1429 47.5318 18.2416 48.0508 18.2453H48.0636C50.4482 18.2735 52.404 16.3633 52.4323 13.9788C52.4606 11.5943 50.5503 9.6384 48.1658 9.61013C45.7812 9.582 43.8254 11.4921 43.7971 13.8767C43.7911 14.3869 43.8755 14.8941 44.0466 15.3749L34.1266 16.5856L17.9452 0.32C17.7467 0.117467 17.4757 0.00226667 17.1921 0C16.9121 0.00146667 16.644 0.112933 16.4455 0.3104L13.4204 3.3184C13.004 3.73493 13.004 4.41013 13.4204 4.82667L15.0481 6.47787C8.74201 18.0737 10.7903 32.4335 20.0871 41.8037C20.1724 41.8853 20.2713 41.9513 20.3793 41.9989C20.3121 42.3599 20.2771 42.7261 20.2748 43.0933V55.4667H7.47481C4.53081 55.4701 2.14495 57.856 2.14148 60.8V62.9333C2.14148 63.5224 2.61908 64 3.20815 64H52.2748C52.8639 64 53.3415 63.5224 53.3415 62.9333V60.8C53.338 57.856 50.9522 55.4701 48.0082 55.4667H35.2082V49.9829C37.2134 50.4035 39.2564 50.6179 41.3052 50.6229C46.2215 50.6176 51.0595 49.392 55.3852 47.056L57.0215 48.7019C57.22 48.9044 57.491 49.0196 57.7746 49.0219C58.0546 49.0204 58.3227 48.9089 58.5212 48.7115L61.5463 45.7035C61.9627 45.2869 61.9627 44.6117 61.5463 44.1952ZM46.5596 12.4661C47.395 11.6352 48.7458 11.6389 49.5766 12.4743C50.4075 13.3096 50.4038 14.6604 49.5684 15.4912C49.1686 15.8889 48.6275 16.1121 48.0635 16.112H48.0571C46.879 16.1059 45.9287 15.1459 45.9348 13.9676C45.9378 13.4036 46.1639 12.8639 46.5638 12.4661H46.5596ZM44.0487 19.4752L42.8519 25.3664L40.5009 23.0016L44.0487 19.4752ZM42.837 17.6715L38.997 21.4891L36.0263 18.5024L42.837 17.6715ZM48.0082 57.6C49.7755 57.6 51.2082 59.0327 51.2082 60.8V61.8667H4.27481V60.8C4.27481 59.0327 5.70748 57.6 7.47481 57.6H48.0082ZM33.0748 53.3333V55.4667H22.4081V53.3333H33.0748ZM22.4081 51.2V43.0933C22.4081 40.5056 24.8007 38.4 27.7415 38.4C30.6823 38.4 33.0748 40.5056 33.0748 43.0933V51.2H22.4081ZM35.2082 47.808V43.0933C35.2082 39.3291 31.8588 36.2667 27.7415 36.2667C25.0793 36.2259 22.59 37.5809 21.1793 39.8389C13.0639 31.2913 11.2364 18.5485 16.6221 8.06467L53.8258 45.4816C48.081 48.404 41.4955 49.2268 35.2082 47.808ZM57.7863 46.4405L56.2834 44.9291L17.1815 5.59147L15.6721 4.07893L17.1815 2.57493L33.0513 18.5344C33.0588 18.5344 33.0631 18.5483 33.0706 18.5536L59.2999 44.9365L57.7863 46.4405Z" fill="#2E2F42"/>
<path d="M27.7511 40.5333H27.7415C25.9742 40.5306 24.5394 41.9612 24.5367 43.7285C24.534 45.4958 25.9646 46.9306 27.7319 46.9333H27.7415C29.5088 46.936 30.9436 45.5054 30.9463 43.7381C30.9489 41.9708 29.5184 40.536 27.7511 40.5333ZM28.4978 44.4896C28.297 44.6893 28.0248 44.801 27.7415 44.8C27.1524 44.7969 26.6774 44.3169 26.6804 43.7278C26.6819 43.4458 26.795 43.176 26.9948 42.977C27.1934 42.7796 27.4615 42.6681 27.7415 42.6666C28.3306 42.6697 28.8056 43.1497 28.8026 43.7388C28.8011 44.0208 28.688 44.2906 28.4882 44.4896H28.4978Z" fill="#4D5AE5"/>
</symbol>

<!-- Form icons -->
<symbol id="close" viewBox="0 0 8 8">
<path d="M8 0.805714L7.19429 0L4 3.19429L0.805714 0L0 0.805714L3.19429 4L0 7.19429L0.805714 8L4 4.80571L7.19429 8L8 7.19429L4.80571 4L8 0.805714Z" fill="#2E2F42"/>
</symbol>

<symbol id="person" viewBox="0 0 18 18">
<path d="M9 9C10.6575 9 12 7.6575 12 6C12 4.3425 10.6575 3 9 3C7.3425 3 6 4.3425 6 6C6 7.6575 7.3425 9 9 9ZM9 10.5C6.9975 10.5 3 11.505 3 13.5V14.25C3 14.6625 3.3375 15 3.75 15H14.25C14.6625 15 15 14.6625 15 14.25V13.5C15 11.505 11.0025 10.5 9 10.5Z"/>
</symbol>

<symbol id="phone" viewBox="0 0 18 24">
<path d="M14.7263 13.8651L12.8881 13.6552C12.4467 13.6046 12.0125 13.7566 11.7013 14.0677L10.3697 15.3993C8.3217 14.3572 6.64276 12.6855 5.60067 10.6303L6.93947 9.29144C7.25065 8.98025 7.40263 8.54605 7.35197 8.1046L7.1421 6.28092C7.05526 5.55 6.44013 5 5.70198 5H4.45002C3.63226 5 2.952 5.68026 3.00266 6.49802C3.38621 12.6783 8.32894 17.6138 14.5019 17.9973C15.3197 18.048 15.9999 17.3677 15.9999 16.55V15.298C16.0072 14.5671 15.4572 13.952 14.7263 13.8651Z"/>
</symbol>

<symbol id="email" viewBox="0 0 18 24">
<path d="M15 6H3C2.175 6 1.5075 6.675 1.5075 7.5L1.5 16.5C1.5 17.325 2.175 18 3 18H15C15.825 18 16.5 17.325 16.5 16.5V7.5C16.5 6.675 15.825 6 15 6ZM14.7 9.1875L9.3975 12.5025C9.1575 12.6525 8.8425 12.6525 8.6025 12.5025L3.3 9.1875C3.1125 9.0675 3 8.865 3 8.6475C3 8.145 3.5475 7.845 3.975 8.1075L9 11.25L14.025 8.1075C14.4525 7.845 15 8.145 15 8.6475C15 8.865 14.8875 9.0675 14.7 9.1875Z"/>
</symbol>

<symbol id="send" viewBox="0 0 24 20">
<path d="M24 0L0 11.25L7.66994 13.6172L19.5 4.375L10.5017 14.4913L10.509 14.4936L10.5 14.4913V20L14.8013 15.8183L20.2501 17.5L24 0Z" fill="white"/>
</symbol>

<symbol id="checkmark" viewBox="0 0 10 8">
<path d="M8.44558 0.255056C8.61838 0.089653 8.84834 -0.00178848 9.08693 2.65108e-05C9.32551 0.0018415 9.55407 0.0967713 9.72436 0.264784C9.89466 0.432797 9.99337 0.660752 9.99968 0.900549C10.006 1.14034 9.91939 1.37323 9.75816 1.55005L4.86357 7.70436C4.7794 7.79551 4.67782 7.86865 4.5649 7.91942C4.45198 7.97018 4.33003 7.99754 4.20636 7.99984C4.08268 8.00214 3.95981 7.97935 3.8451 7.93282C3.73038 7.88629 3.62618 7.81698 3.53872 7.72903L0.292827 4.46564C0.202435 4.38096 0.129933 4.27884 0.0796475 4.16537C0.0293621 4.05191 0.00232279 3.92942 0.000143182 3.80522C-0.00203643 3.68102 0.0206883 3.55765 0.0669613 3.44248C0.113234 3.3273 0.182108 3.22267 0.269473 3.13483C0.356838 3.047 0.460905 2.97775 0.575465 2.93123C0.690026 2.88471 0.812734 2.86186 0.936267 2.86405C1.0598 2.86624 1.18163 2.89343 1.29449 2.94398C1.40734 2.99454 1.50892 3.06743 1.59315 3.15831L4.16189 5.73967L8.42227 0.28219C8.42994 0.272694 8.43813 0.263635 8.4468 0.255056H8.44558Z" fill="#F4F4FD"/>
</symbol>

<symbol id="menu" viewBox="0 0 24 24">
<path fill-rule="evenodd" clip-rule="evenodd" d="M3.59961 6.00078C3.59961 5.68252 3.72604 5.3773 3.95108 5.15225C4.17612 4.92721 4.48135 4.80078 4.79961 4.80078H19.1996C19.5179 4.80078 19.8231 4.92721 20.0481 5.15225C20.2732 5.3773 20.3996 5.68252 20.3996 6.00078C20.3996 6.31904 20.2732 6.62427 20.0481 6.84931C19.8231 7.07435 19.5179 7.20078 19.1996 7.20078H4.79961C4.48135 7.20078 4.17612 7.07435 3.95108 6.84931C3.72604 6.62427 3.59961 6.31904 3.59961 6.00078Z" fill="#2F2F37"/>
<path fill-rule="evenodd" clip-rule="evenodd" d="M3.59961 12.0008C3.59961 11.6825 3.72604 11.3773 3.95108 11.1523C4.17612 10.9272 4.48135 10.8008 4.79961 10.8008H19.1996C19.5179 10.8008 19.8231 10.9272 20.0481 11.1523C20.2732 11.3773 20.3996 11.6825 20.3996 12.0008C20.3996 12.319 20.2732 12.6243 20.0481 12.8493C19.8231 13.0744 19.5179 13.2008 19.1996 13.2008H4.79961C4.48135 13.2008 4.17612 13.0744 3.95108 12.8493C3.72604 12.6243 3.59961 12.319 3.59961 12.0008Z" fill="#2F2F37"/>
<path fill-rule="evenodd" clip-rule="evenodd" d="M3.59961 18.0008C3.59961 17.6825 3.72604 17.3773 3.95108 17.1523C4.17612 16.9272 4.48135 16.8008 4.79961 16.8008H19.1996C19.5179 16.8008 19.8231 16.9272 20.0481 17.1523C20.2732 17.3773 20.3996 17.6825 20.3996 18.0008C20.3996 18.319 20.2732 18.6243 20.0481 18.8493C19.8231 19.0744 19.5179 19.2008 19.1996 19.2008H4.79961C4.48135 19.2008 4.17612 19.0744 3.95108 18.8493C3.72604 18.6243 3.59961 18.319 3.59961 18.0008Z" fill="#2F2F37"/>
</symbol>

</defs>
</svg>
